<svg xmlns="http://www.w3.org/2000/svg" enable-background="new 0 0 110 110" viewBox="0 0 110 110" id="save-energy">
  <path d="M103.3 74.7c-1.2-2.6-4.3-3.7-6.8-2.5l-22.8 7.1c.3-.6.5-1.3.6-2.1.1-1.4-.4-2.8-1.4-3.8-1.1-1.1-2.5-1.8-4.1-1.8H54.5l-12.3-4.5c-3-1.1-6.1-1.6-9.3-1.6h-8.1v-4.2c0-2.1-1.7-3.8-3.8-3.8H10.1c-2.1 0-3.8 1.7-3.8 3.8v35.4c0 2.1 1.7 3.8 3.8 3.8h10.8c2.1 0 3.8-1.7 3.8-3.8V93h4.7c1 0 1.9.2 2.9.5l26.2 9.3c.7.3 1.5.4 2.3.4 1.2 0 2.4-.3 3.4-.9l36.4-20.8C103.3 80.4 104.5 77.3 103.3 74.7zM20.9 99.1H10.1c-1.3 0-2.3-1-2.3-2.3V61.4c0-1.3 1-2.3 2.3-2.3l10.8 0c1.3 0 2.3 1 2.3 2.3v4.9c0 0 0 0 0 0v26c0 0 0 0 0 0 0 0 0 0 0 0v4.5C23.3 98.1 22.2 99.1 20.9 99.1zM100.1 80.3L63.6 101c-1.4.8-3 .9-4.5.4-2.7-1 9.7 3.5-26.2-9.3-1.1-.4-2.2-.6-3.4-.6h-4.7V67h8.2c3 0 6 .5 8.8 1.6l12.5 4.6c.1 0 .2 0 .3 0h14.4c1.1 0 2.2.5 3 1.3.7.7 1 1.7 1 2.6-.2 2.9-2.9 3.3-3 3.4-22 .1-14.5.1-16.1.1-.4 0-.8.3-.8.8 0 .4.3.8.8.8H69c.7 0 1.4-.1 2.1-.4l25.8-8.1c0 0 .1 0 .1 0 1.8-.9 4-.1 4.9 1.8C102.8 77.2 101.9 79.4 100.1 80.3zM60.6 41.7l12.9-.9-2.2 16.5c-.1.6.3 1.1.8 1.3.1 0 .2.1.4.1.4 0 .8-.2 1-.6l14-25.6c.1-.2.2-.4.1-.7-.1-.6-.6-1.1-1.3-1L72 32.3l2.7-16.9c.1-.5-.2-1-.6-1.2-.6-.3-1.3-.1-1.6.5L59.5 40c-.1.2-.1.4-.1.6C59.4 41.2 59.9 41.7 60.6 41.7zM72.9 17.2l-2.4 15.3c0 .1 0 .2 0 .3.1.6.6 1.1 1.3 1l14.1-1.6L73 55.7 75 40.6c0-.1 0-.1 0-.2 0-.6-.5-1.2-1.2-1.2 0 0-.1 0-.1 0l-12.7.8L72.9 17.2z"></path>
  <path d="M73.5,65.8c16.3,0,29.5-13.2,29.5-29.5c0,0,0,0,0,0c0-16.3-13.2-29.5-29.5-29.5S43.9,20,43.9,36.3C43.9,52.6,57.2,65.8,73.5,65.8z M73.5,8.2c15.5,0,28,12.6,28,28c0,0,0,0,0,0c0,15.5-12.6,28-28,28s-28-12.6-28-28C45.4,20.8,58,8.2,73.5,8.2z"></path>
</svg>
